<svg xmlns="http://www.w3.org/2000/svg" viewBox="0 0 64 64">
    <rect width="100%" height="100%" fill="#fff"/>
    <path fill="#00a1cb" d="m36.76 32.71-8.53.03a.37.37 0 0 1-.26-.1L12.84 18.23a.37.37 0 0 1 0-.54L27.48 3.63a.37.37 0 0 1 .26-.1l8-.02a.37.37 0 0 1 .25.64L22.05 17.31a.37.37 0 0 0 0 .54l14.96 14.22a.37.37 0 0 1-.25.64Z"/>
    <path fill="#fd4645" d="m10.65 18.29 13.11 12.46a.41.41 0 0 1-.29.71l-7.41-.18a.41.41 0 0 1-.27-.11L2.45 18.58a.41.41 0 0 1 0-.6L15.1 6.1a.41.41 0 0 1 .27-.11l6.86-.14a.41.41 0 0 1 .29.71L10.66 17.69a.41.41 0 0 0-.01.6Zm8.9 21.42a.94.93 11.9 0 0-.98-1.5Q8.61 41.17 6.15 50.78c-2.44 9.47 6.7 6.93 11.1 4.23q4.7-2.88 9.07-7.28a.46.45 59 0 1 .76.19l.1.32a1.48 1.48 0 0 1-.32 1.42c-4.16 4.67-16.84 14.2-22.37 7.82q-2.67-3.1-.91-7.97 3.83-10.63 14.17-13.04 2.33-.54 3.69 1.16c1.71 2.12-.04 4.31-1.76 5.79q-.88.77-1.65-.12l-.31-.36a.81.81 0 0 1 0-1.06l1.83-2.17Z"/>
    <path fill="#fd4645" d="M28.23 43.27c1.15 3.52 8.37 4.45 10.57 5.63 8.97 4.81-7.36 14.11-13.06 10.85q-1.16-.67-1.04-2l.04-.45a.79.79 0 0 1 1.1-.65q5.26 2.31 10.69-1.35 1.63-1.1 2.05-2.54a1.49 1.49 0 0 0-.95-1.83c-3.36-1.13-8.2-1.99-10.59-4.68-2.41-2.72-1.81-5.44 1.2-7.27q4.95-3.01 10.25-2.31c2.69.35 4.68 1.69 3.06 4.68a.64.64 0 0 1-1.16-.08l-.73-1.96a.83.81 85.2 0 0-.6-.52q-5.59-1.15-10.09 2.17a2.08 2.08 0 0 0-.74 2.31Z"/>
    <path fill="#fd4645" d="M57.83 38.71q-5.69-1.09-10.09 2.5a2.01 2.01 0 0 0-.22 2.91c3.35 3.72 9.85 2.75 12.39 6.67 3.42 5.27-11.81 12.87-16.26 8.02a1.33 1.33 0 0 1 1.47-2.13l2.1.84a.78.64 50.4 0 0 .26.05q5.84.01 9.95-4.09a1.46 1.46 0 0 0-.53-2.4c-3.71-1.36-7.33-1.89-10.3-4.4-7.98-6.77 8.3-12.57 13.65-9.08q.41.27.43.76l.08 2.53q.01.56-.55.59-.21 0-.4-.08-.38-.18-.56-.57l-.68-1.53q-.21-.49-.74-.59Z"/>
</svg>
